<svg viewBox="0 0 512 512" xml:space="preserve" xmlns="http://www.w3.org/2000/svg" enable-background="new 0 0 512 512"><path d="M485.999 115.445v281.108c0 21.165-17.17 38.335-38.333 38.335H64.334c-21.163 0-38.333-17.17-38.333-38.335V115.445c0-21.164 17.17-38.334 38.333-38.334h383.332c21.163 0 38.333 17.171 38.333 38.334z" fill="#ffffff" class="fill-0353a5"></path><path d="M421.791 192.111h-24.837c-7.666 0-13.498 2.237-16.771 10.302l-47.678 113.8h33.702s5.511-15.332 6.708-18.606h41.209c.956 4.392 3.832 18.606 3.832 18.606h29.709l-25.874-124.102zm-39.612 80.1c2.637-7.106 12.778-34.738 12.778-34.738-.16.239 2.636-7.268 4.233-11.9l2.235 10.702s6.07 29.708 7.428 35.937h-26.674zM164.32 192.111l-31.385 84.653-3.435-17.171-11.181-57.021c-1.837-7.906-7.507-10.142-14.535-10.461H52.116l-.56 2.476c12.618 3.195 23.879 7.827 33.701 13.656l28.591 107.813h33.94l50.471-123.944H164.32zM211.197 192.111l-20.045 124.103h32.026l20.124-124.103zM307.989 241.865c-11.26-5.67-18.128-9.504-18.128-15.333.159-5.271 5.829-10.702 18.448-10.702 10.461-.24 18.128 2.237 23.877 4.711l2.876 1.358 4.392-26.833c-6.31-2.477-16.371-5.272-28.75-5.272-31.704 0-53.985 16.932-54.145 41.049-.24 17.809 15.971 27.713 28.11 33.701 12.379 6.068 16.611 10.063 16.611 15.413-.159 8.307-10.063 12.14-19.247 12.14-12.777 0-19.646-1.998-30.105-6.627l-4.234-1.999-4.472 27.871c7.505 3.435 21.402 6.47 35.777 6.631 33.701.078 55.663-16.614 55.902-42.328.162-14.134-8.463-24.916-26.912-33.78z" fill="#ffffff" class="fill-ffffff"></path></svg>